<svg width="84" height="19" viewBox="0 0 84 19" fill="none" xmlns="http://www.w3.org/2000/svg">
<path d="M5.28955 18.6986C7.31946 18.6986 8.53235 17.7468 9.08826 16.6603H9.18933V18.4375H12.1205V9.77881C12.1205 6.35913 9.33252 5.33154 6.86462 5.33154C4.14404 5.33154 2.05518 6.54443 1.38135 8.90283L4.22827 9.30713C4.53149 8.42273 5.39063 7.66467 6.88147 7.66467C8.29651 7.66467 9.07141 8.38904 9.07141 9.66089V9.71143C9.07141 10.5874 8.15332 10.6295 5.87073 10.8738C3.36072 11.1433 0.960205 11.8929 0.960205 14.8073C0.960205 17.351 2.82166 18.6986 5.28955 18.6986ZM6.0813 16.4581C4.80945 16.4581 3.89978 15.877 3.89978 14.7567C3.89978 13.5859 4.91895 13.0974 6.28345 12.9037C7.08362 12.7942 8.68396 12.592 9.07983 12.272V13.7965C9.07983 15.2368 7.91748 16.4581 6.0813 16.4581ZM15.1864 18.4375H18.2355V10.8317C18.2355 9.18921 19.4736 8.02686 21.1498 8.02686C21.6636 8.02686 22.3037 8.11951 22.5648 8.20373V5.39893C22.2869 5.34839 21.8068 5.3147 21.4698 5.3147C19.9874 5.3147 18.7493 6.15698 18.2776 7.65625H18.1428V5.5H15.1864V18.4375ZM31.7457 5.5H29.1936V2.40039H26.1445V5.5H24.3083V7.8584H26.1445V15.0515C26.1277 17.4857 27.8965 18.6818 30.1875 18.6144C31.0551 18.5891 31.6531 18.4207 31.9816 18.3112L31.4678 15.9275C31.2993 15.9696 30.954 16.0454 30.575 16.0454C29.8085 16.0454 29.1936 15.7759 29.1936 14.5461V7.8584H31.7457V5.5Z" fill="#F29913"/>
<path d="M49.8443 9.8125C49.8443 4.23657 46.4415 0.95166 41.9184 0.95166C37.3869 0.95166 33.9925 4.23657 33.9925 9.8125C33.9925 15.38 37.3869 18.6733 41.9184 18.6733C46.4415 18.6733 49.8443 15.3884 49.8443 9.8125ZM46.7026 9.8125C46.7026 13.7375 44.7317 15.8685 41.9184 15.8685C39.1136 15.8685 37.1342 13.7375 37.1342 9.8125C37.1342 5.88745 39.1136 3.75647 41.9184 3.75647C44.7317 3.75647 46.7026 5.88745 46.7026 9.8125ZM54.2032 18.4375L55.6266 14.184H62.1122L63.5441 18.4375H66.8795L60.7982 1.1875H56.9406L50.8677 18.4375H54.2032ZM56.4689 11.674L58.802 4.7251H58.9368L61.2699 11.674H56.4689ZM69.1516 18.4375H72.2765V13.2996L74.1885 11.0422L79.3348 18.4375H83.0914L76.3616 8.9281L83.0325 1.1875H79.2169L72.4871 9.1134H72.2765V1.1875H69.1516V18.4375Z" fill="white"/>
</svg>
