<svg width="39" height="39" viewBox="0 0 39 39" fill="none" xmlns="http://www.w3.org/2000/svg">
<g clip-path="url(#clip0)">
<path d="M36.8475 39.0002C38.0361 39.0002 39 38.0364 39 36.8477V2.15246C39 0.963574 38.0361 0 36.8475 0H2.15246C0.963422 0 0 0.963574 0 2.15246V36.8477C0 38.0364 0.963422 39.0002 2.15246 39.0002H36.8475Z" fill="#395185"/>
<path d="M26.9093 39V23.8971H31.9789L32.7379 18.0113H26.9093V14.2533C26.9093 12.5492 27.3827 11.3879 29.8264 11.3879L32.9432 11.3865V6.12228C32.4039 6.05052 30.5539 5.89026 28.4015 5.89026C23.9077 5.89026 20.8313 8.63321 20.8313 13.6706V18.0113H15.7488V23.8971H20.8313V39H26.9093Z" fill="white"/>
</g>
<defs>
<clipPath id="clip0">
<rect width="39" height="39" fill="white"/>
</clipPath>
</defs>
</svg>
