<svg width="39" height="39" viewBox="0 0 39 39" fill="none" xmlns="http://www.w3.org/2000/svg">
<g clip-path="url(#clip0)">
<g filter="url(#filter0_dd)">
<path d="M37.6289 0.302368H1.37109C0.782134 0.302368 0.304688 0.776113 0.304688 1.36051V37.3372C0.304688 37.9216 0.782134 38.3954 1.37109 38.3954H37.6289C38.2179 38.3954 38.6953 37.9216 38.6953 37.3372V1.36051C38.6953 0.776113 38.2179 0.302368 37.6289 0.302368Z" fill="#DC4E41"/>
</g>
<path d="M15.661 18.3966V20.6822H19.4713C19.3177 21.6631 18.3195 23.5582 15.661 23.5582C13.3671 23.5582 11.4956 21.6726 11.4956 19.3489C11.4956 17.0252 13.3671 15.1396 15.661 15.1396C16.9663 15.1396 17.8397 15.692 18.3387 16.1681L20.1623 14.4254C18.9914 13.3397 17.4749 12.6826 15.661 12.6826C11.9467 12.6826 8.94263 15.6634 8.94263 19.3489C8.94263 23.0344 11.9467 26.0152 15.661 26.0152C19.5384 26.0152 22.1106 23.3106 22.1106 19.5013C22.1106 19.0632 22.0626 18.7299 22.005 18.3966H15.661Z" fill="white"/>
<path opacity="0.4" d="M15.661 18.5108H22.005C22.0722 18.8251 22.1106 19.1584 22.1106 19.5584V19.4917C22.1106 19.0537 22.0626 18.7204 22.005 18.387H15.661V18.5108ZM15.661 12.7969C17.4366 12.7969 18.9338 13.435 20.0855 14.4825L20.1527 14.4158C18.9914 13.3397 17.4749 12.6826 15.661 12.6826C11.9467 12.6826 8.94263 15.6634 8.94263 19.3489V19.406C8.98102 15.7586 11.9755 12.7969 15.661 12.7969ZM15.661 23.6724C18.3195 23.6724 19.3177 21.7868 19.4713 20.7964H19.4425C19.2313 21.8059 18.2236 23.5486 15.661 23.5486C13.3863 23.5486 11.534 21.6916 11.5052 19.406C11.5052 19.4251 11.4956 19.4441 11.4956 19.4632C11.4956 21.7868 13.3671 23.6724 15.661 23.6724Z" fill="white"/>
<path opacity="0.1" d="M15.661 15.1396C13.3671 15.1396 11.4956 17.0252 11.4956 19.3489C11.4956 19.368 11.5052 19.387 11.5052 19.4061C11.534 17.111 13.3863 15.2634 15.661 15.2634C16.9663 15.2634 17.8397 15.8158 18.3387 16.292L20.1623 14.5492C20.1431 14.5302 20.1143 14.5111 20.0951 14.4921L18.3387 16.1777C17.8397 15.7015 16.9663 15.1396 15.661 15.1396ZM15.661 20.6822V20.7965H19.4425C19.4521 20.7584 19.4617 20.7107 19.4713 20.6822H15.661Z" fill="#3E2723"/>
<path opacity="0.1" d="M15.661 26.0152C11.9755 26.0152 8.98102 23.0629 8.94263 19.406V19.4631C8.94263 23.1487 11.9467 26.1294 15.661 26.1294C19.5384 26.1294 22.1106 23.4248 22.1106 19.6155V19.5584C22.0818 23.3391 19.5192 26.0152 15.661 26.0152Z" fill="#3E2723"/>
<path d="M30.0574 18.3966H28.1379V16.4919H26.2184V18.3966H24.2988V20.3012H26.2184V22.2059H28.1379V20.3012H30.0574" fill="white"/>
<path opacity="0.4" d="M28.1379 18.3966H30.0574V18.5109H28.1379V18.3966ZM26.2184 16.4919H28.1379V16.6062H26.2184V16.4919ZM24.2988 18.3966H26.2184V18.5109H24.2988V18.3966Z" fill="white"/>
<path opacity="0.1" d="M24.2988 20.3011H26.2184V20.4154H24.2988V20.3011ZM28.1379 20.3011H30.0574V20.4154H28.1379V20.3011ZM26.2184 22.2058H28.1379V22.3201H26.2184V22.2058Z" fill="#3E2723"/>
</g>
<defs>
<filter id="filter0_dd" x="-1.69531" y="-1.69763" width="42.3906" height="44.093" filterUnits="userSpaceOnUse" color-interpolation-filters="sRGB">
<feFlood flood-opacity="0" result="BackgroundImageFix"/>
<feColorMatrix in="SourceAlpha" type="matrix" values="0 0 0 0 0 0 0 0 0 0 0 0 0 0 0 0 0 0 127 0"/>
<feOffset dy="2"/>
<feGaussianBlur stdDeviation="1"/>
<feColorMatrix type="matrix" values="0 0 0 0 0 0 0 0 0 0 0 0 0 0 0 0 0 0 0.168 0"/>
<feBlend mode="normal" in2="BackgroundImageFix" result="effect1_dropShadow"/>
<feColorMatrix in="SourceAlpha" type="matrix" values="0 0 0 0 0 0 0 0 0 0 0 0 0 0 0 0 0 0 127 0"/>
<feOffset/>
<feGaussianBlur stdDeviation="1"/>
<feColorMatrix type="matrix" values="0 0 0 0 0 0 0 0 0 0 0 0 0 0 0 0 0 0 0.084 0"/>
<feBlend mode="normal" in2="effect1_dropShadow" result="effect2_dropShadow"/>
<feBlend mode="normal" in="SourceGraphic" in2="effect2_dropShadow" result="shape"/>
</filter>
<clipPath id="clip0">
<rect width="39" height="39" fill="white"/>
</clipPath>
</defs>
</svg>
